<?xml version="1.0" encoding="UTF-8"?>
<svg width="354px" height="354px" viewBox="0 0 354 354" version="1.1" xmlns="http://www.w3.org/2000/svg" xmlns:xlink="http://www.w3.org/1999/xlink">
    <!-- Generator: Sketch 48.2 (47327) - http://www.bohemiancoding.com/sketch -->
    <title>Logo</title>
    <desc>Created with Sketch.</desc>
    <defs>
        <linearGradient x1="18.6848958%" y1="0%" x2="77.9414062%" y2="100%" id="linearGradient-1">
            <stop stop-color="#FF694F" offset="0%"></stop>
            <stop stop-color="#FF3827" offset="100%"></stop>
        </linearGradient>
        <rect id="path-2" x="0" y="0" width="300" height="300" rx="25"></rect>
        <filter x="-13.7%" y="-13.3%" width="127.3%" height="127.3%" filterUnits="objectBoundingBox" id="filter-3">
            <feMorphology radius="1" operator="dilate" in="SourceAlpha" result="shadowSpreadOuter1"></feMorphology>
            <feOffset dx="0" dy="1" in="shadowSpreadOuter1" result="shadowOffsetOuter1"></feOffset>
            <feGaussianBlur stdDeviation="12.5" in="shadowOffsetOuter1" result="shadowBlurOuter1"></feGaussianBlur>
            <feColorMatrix values="0 0 0 0 0.925490196   0 0 0 0 0.258823529   0 0 0 0 0.2  0 0 0 0.45 0" type="matrix" in="shadowBlurOuter1"></feColorMatrix>
        </filter>
        <path d="M130.4,176.1 L130.4,227 L103.5,227 L103.5,82.4 L150.6,82.4 C160.266715,82.4 168.633298,83.533322 175.7,85.8 C182.766702,88.066678 188.599977,91.233313 193.2,95.3 C197.800023,99.366687 201.199989,104.233305 203.4,109.9 C205.600011,115.566695 206.7,121.766633 206.7,128.5 C206.7,135.500035 205.533345,141.916637 203.2,147.75 C200.866655,153.583363 197.36669,158.599979 192.7,162.8 C188.03331,167.000021 182.200035,170.266655 175.2,172.6 C168.199965,174.933345 160.000047,176.1 150.6,176.1 L130.4,176.1 Z M130.4,155.1 L150.6,155.1 C155.533358,155.1 159.833315,154.483339 163.5,153.25 C167.166685,152.016661 170.199988,150.250011 172.6,147.95 C175.000012,145.649989 176.799994,142.850016 178,139.55 C179.200006,136.249983 179.8,132.566687 179.8,128.5 C179.8,124.633314 179.200006,121.133349 178,118 C176.799994,114.866651 175.000012,112.200011 172.6,110 C170.199988,107.799989 167.166685,106.116672 163.5,104.95 C159.833315,103.783327 155.533358,103.2 150.6,103.2 L130.4,103.2 L130.4,155.1 Z" id="path-4"></path>
        <filter x="-1.0%" y="-0.7%" width="103.9%" height="102.8%" filterUnits="objectBoundingBox" id="filter-5">
            <feOffset dx="2" dy="2" in="SourceAlpha" result="shadowOffsetOuter1"></feOffset>
            <feColorMatrix values="0 0 0 0 1   0 0 0 0 0.415686275   0 0 0 0 0.31372549  0 0 0 1 0" type="matrix" in="shadowOffsetOuter1"></feColorMatrix>
        </filter>
    </defs>
    <g id="Page-1" stroke="none" stroke-width="1" fill="none" fill-rule="evenodd">
        <g id="Logo" transform="translate(27.000000, 26.000000)">
            <g id="Rectangle">
                <use fill="black" fill-opacity="1" filter="url(#filter-3)" xlink:href="#path-2"></use>
                <use fill="url(#linearGradient-1)" fill-rule="evenodd" xlink:href="#path-2"></use>
            </g>
            <g id="P">
                <use fill="black" fill-opacity="1" filter="url(#filter-5)" xlink:href="#path-4"></use>
                <use fill="#FFFFFF" fill-rule="evenodd" xlink:href="#path-4"></use>
            </g>
        </g>
    </g>
</svg>